<svg xmlns="http://www.w3.org/2000/svg" width="16.694" height="18.549" viewBox="366.25 2332.25 16.694 18.549"><g data-name="Group 13439"><g data-name="Icon feather-calendar"><path d="M368.105 2334.105h12.984c1.024 0 1.855.83 1.855 1.855v12.984c0 1.024-.83 1.855-1.855 1.855h-12.984a1.855 1.855 0 0 1-1.855-1.855v-12.984c0-1.025.83-1.855 1.855-1.855Z" stroke-linejoin="round" stroke-linecap="round" stroke-width="1.5" stroke="#adafaf" fill="transparent" data-name="Path 10565"/><path d="M378.307 2332.25v3.71" stroke-linejoin="round" stroke-linecap="round" stroke-width="1.5" stroke="#adafaf" fill="transparent" data-name="Path 10566"/><path d="M370.887 2332.25v3.71" stroke-linejoin="round" stroke-linecap="round" stroke-width="1.5" stroke="#adafaf" fill="transparent" data-name="Path 10567"/><path d="M366.25 2339.67h16.694" stroke-linejoin="round" stroke-linecap="round" stroke-width="1.5" stroke="#adafaf" fill="transparent" data-name="Path 10568"/></g><g data-name="Group 13436"><path d="M369.992 2343.507a.8.8 0 1 1 0 .1z" fill="#adafaf" fill-rule="evenodd" data-name="Ellipse 822"/><path d="M372.39 2343.507a.8.8 0 1 1 0 .1z" fill="#adafaf" fill-rule="evenodd" data-name="Ellipse 823"/><path d="M374.787 2343.507a.8.8 0 1 1 0 .1z" fill="#adafaf" fill-rule="evenodd" data-name="Ellipse 824"/><path d="M377.185 2343.507a.8.8 0 1 1 0 .1z" fill="#adafaf" fill-rule="evenodd" data-name="Ellipse 825"/><path d="M379.583 2343.507a.8.8 0 1 1 0 .1z" fill="#adafaf" fill-rule="evenodd" data-name="Ellipse 826"/></g><g data-name="Group 13437"><path d="M369.992 2345.904a.8.8 0 1 1 0 .1z" fill="#adafaf" fill-rule="evenodd" data-name="Ellipse 822"/><path d="M372.39 2345.904a.8.8 0 1 1 0 .1z" fill="#adafaf" fill-rule="evenodd" data-name="Ellipse 823"/><path d="M374.787 2345.904a.8.8 0 1 1 0 .1z" fill="#adafaf" fill-rule="evenodd" data-name="Ellipse 824"/><path d="M377.185 2345.904a.8.8 0 1 1 0 .1z" fill="#adafaf" fill-rule="evenodd" data-name="Ellipse 825"/><path d="M379.583 2345.904a.8.8 0 1 1 0 .1z" fill="#adafaf" fill-rule="evenodd" data-name="Ellipse 826"/></g><g data-name="Group 13438"><path d="M369.992 2348.302a.8.8 0 1 1 0 .1z" fill="#adafaf" fill-rule="evenodd" data-name="Ellipse 822"/><path d="M372.39 2348.302a.8.8 0 1 1 0 .1z" fill="#adafaf" fill-rule="evenodd" data-name="Ellipse 823"/><path d="M374.787 2348.302a.8.8 0 1 1 0 .1z" fill="#adafaf" fill-rule="evenodd" data-name="Ellipse 824"/></g></g></svg>